<?xml version="1.0" encoding="UTF-8"?><svg id="uuid-5772d539-0f29-4461-9ddc-484893e6528a" xmlns="http://www.w3.org/2000/svg" viewBox="0 0 323.7 370.4"><defs><style>.uuid-ffffab75-27b1-4fdd-b3b2-89c453098956{fill:#fff;}.uuid-b1009652-36cc-4a9a-a1bd-1e4cab1482af{fill:#8f949b;}</style></defs><g id="uuid-9634b47b-661b-40b4-9e81-b309d7910cf0"><g><path class="uuid-ffffab75-27b1-4fdd-b3b2-89c453098956" d="m236.5,170.6c-1.2-.6-2.5-1.2-3.8-1.8,12.6-18.3,19.4-40.8,19.4-64.6C252.2,46.7,211.7,0,161.9,0s-90.3,46.7-90.3,104.2,6.8,46.3,19.4,64.6c-2,.9-3.3,1.6-3.8,1.9C34.2,195,0,248.1,0,306v36.1c0,15.5,12.6,28.2,28.2,28.2h267.3c15.5,0,28.2-12.6,28.2-28.2v-36.1c0-58-34.2-111.1-87.2-135.4Z"/><g><path class="uuid-b1009652-36cc-4a9a-a1bd-1e4cab1482af" d="m232.3,179.4c-.5.6-1,1.2-1.5,1.8-18.3,21.4-42.8,33.2-69,33.2s-50.7-11.8-69-33.2c-.5-.6-1-1.2-1.5-1.8-48.1,22-81.7,70.5-81.7,126.6v36.1c0,10.2,8.3,18.4,18.4,18.4h267.3c10.2,0,18.4-8.3,18.4-18.4v-36.1c0-56.1-33.6-104.6-81.7-126.6Z"/><path class="uuid-b1009652-36cc-4a9a-a1bd-1e4cab1482af" d="m161.9,198.7c21.2,0,40.4-9.6,54.8-25.2,15.8-17.2,25.8-41.9,25.8-69.2,0-52.2-36.1-94.4-80.6-94.4s-80.6,42.3-80.6,94.4,9.9,52,25.8,69.2c14.4,15.6,33.6,25.2,54.8,25.2Z"/></g></g></g></svg>