<?xml version="1.0" encoding="UTF-8"?><svg id="uuid-7ff50f68-bcd6-4af7-8127-39e006173213" xmlns="http://www.w3.org/2000/svg" viewBox="0 0 431.1 439"><defs><style>.uuid-027b8be7-fd30-48da-8bd2-90e4cb491631{fill:#fa2742;}</style></defs><path class="uuid-027b8be7-fd30-48da-8bd2-90e4cb491631" d="m171.5,350.3c0,17.4-.4,34.8.1,52.2.6,21.8-16.4,36.7-36.6,36.4-32.7-.5-65.5-.1-98.3-.1C14.4,438.8,0,424.4,0,402.1c0-34.7,0-69.4,0-104,0-21.3,14.6-36.1,35.8-36.1,33.8,0,67.7,0,101.5,0,16,0,29.5,10.6,33.1,25.8.8,3.5.9,7.1.9,10.7,0,17.3,0,34.6,0,51.8Zm-9.6,0c0-17.5,0-35,0-52.5,0-15.6-10.4-26-26-26-33.4,0-66.7,0-100.1,0-15.4,0-25.8,9.8-25.9,25.2-.2,35.5-.2,71,0,106.5,0,15.7,10.3,25.4,26,25.4,33.2,0,66.5.1,99.7,0,4.2,0,8.8-.7,12.5-2.5,9.6-4.6,13.7-13,13.7-23.4,0-17.5,0-35,0-52.5Z"/><path class="uuid-027b8be7-fd30-48da-8bd2-90e4cb491631" d="m259.7,88.2c0-17.5.3-35,0-52.6C259.1,16.1,274.5-.1,295.2,0c33.5.2,67,0,100.4,0,18.4,0,31.4,10.8,35,28.5.4,1.9.5,3.8.5,5.7,0,36.1,0,72.2,0,108.4,0,16.4-10.7,29.8-26.8,33.4-2.9.7-5.9.8-8.9.8-33.4,0-66.7-.2-100.1.1-19.1.2-32.1-13-34.8-26.9-.6-3-.7-6.2-.8-9.3,0-17.5,0-35,0-52.6Zm9.7.1h0c0,3.5,0,7,0,10.4,0,15.6-.1,31.2.4,46.8.4,11.2,10.9,21.2,22,21.2,35.7.2,71.5.1,107.2,0,3.1,0,6.5-1,9.2-2.6,8.8-4.9,13-12.6,13-22.8,0-35,0-70.1,0-105.1,0-16.1-9.3-26.2-25.4-26.4-33.6-.3-67.2-.3-100.8,0-16.1.2-25.4,10.1-25.6,26.3-.2,17.4,0,34.8,0,52.2Z"/><path class="uuid-027b8be7-fd30-48da-8bd2-90e4cb491631" d="m250.7,84.1v9.7c-8.1,0-16,0-23.9,0q-6.4,0-6.4,6.4c0,79.3,0,158.6,0,237.9,0,2.4,0,4.8-.3,7.2-.5,4.6-3.7,8.7-8.1,8.9-10.7.4-21.5.1-32.2.1-.2-.4-.4-.6-.4-.8q-.6-8.6,7.9-8.6c6.1,0,12.2,0,18.4,0,1.4,0,2.8-.2,4.6-.3,0-1.9,0-3.6,0-5.2,0-79.9,0-159.8,0-239.7,0-1.7,0-3.4.2-5,1-6.6,4.2-10.2,10.8-10.5,9.7-.4,19.4-.1,29.4-.1Z"/></svg>